<svg version="1.1" id="Layer_1" xmlns="http://www.w3.org/2000/svg" xmlns:xlink="http://www.w3.org/1999/xlink" x="0px" y="0px"
	 width="100%" viewBox="0 0 1254 1254" enable-background="new 0 0 1254 1254" xml:space="preserve">
<path fill="#FEFEFE" opacity="1.000000" stroke="none" 
	d="
M736.000000,1255.000000 
	C490.666656,1255.000000 245.833328,1255.000000 1.000000,1255.000000 
	C1.000000,837.000000 1.000000,419.000000 1.000000,1.000000 
	C419.000000,1.000000 837.000000,1.000000 1255.000000,1.000000 
	C1255.000000,419.000000 1255.000000,837.000000 1255.000000,1255.000000 
	C1082.166626,1255.000000 909.333313,1255.000000 736.000000,1255.000000 
M1177.996948,142.500275 
	C1177.137329,112.681595 1176.705811,82.830544 1172.517944,52.908138 
	C1170.424438,53.341915 1169.627686,53.488426 1168.839844,53.672928 
	C1117.960327,65.587547 1067.250977,78.301964 1016.147339,89.160904 
	C977.926086,97.282471 939.272461,103.486404 900.669739,109.658249 
	C868.978821,114.725060 837.130493,118.918449 805.256653,122.694557 
	C778.826904,125.825699 752.282166,128.087402 725.745117,130.187576 
	C689.745056,133.036652 653.692993,135.223862 617.684021,137.967285 
	C595.636292,139.647079 573.517090,141.017227 551.623352,143.963425 
	C501.439728,150.716522 453.513855,165.503906 407.775665,187.209015 
	C330.592560,223.836365 268.401001,277.710846 222.727829,350.036346 
	C172.459442,429.638580 148.494522,517.499084 143.385559,610.844299 
	C141.564545,644.116150 142.631409,677.413757 146.816895,710.585083 
	C151.695343,749.248230 160.684296,786.826965 174.738297,823.176880 
	C187.832153,857.043640 204.786346,888.883606 225.579086,918.632812 
	C228.478378,922.780884 228.337830,925.371277 224.755554,928.708252 
	C221.111450,932.102783 217.938660,936.009766 214.619202,939.745361 
	C180.939087,977.647827 149.188751,1017.036133 122.273857,1060.124268 
	C100.535347,1094.925537 82.193611,1131.243286 73.758438,1171.800049 
	C71.676727,1181.809082 70.512756,1192.009155 68.841476,1202.666016 
	C102.968399,1202.666016 135.691376,1202.666016 168.610962,1202.666016 
	C169.301239,1198.511597 169.860016,1194.579956 170.616516,1190.686646 
	C176.114700,1162.389893 187.539886,1136.412354 201.916733,1111.647705 
	C221.733475,1077.512329 245.634933,1046.361450 271.819397,1016.915344 
	C277.635345,1010.374878 283.645172,1004.006836 289.679779,997.435242 
	C291.202637,998.785461 292.211151,999.629150 293.163910,1000.531738 
	C330.575195,1035.971313 372.258179,1065.185669 418.982269,1087.105713 
	C472.663605,1112.289673 528.956848,1127.154663 588.285706,1129.763428 
	C614.619751,1130.921509 640.828064,1129.325073 666.916260,1125.189697 
	C718.650452,1116.989014 767.107117,1099.547729 812.622253,1073.883179 
	C863.610413,1045.132568 907.810303,1008.017334 946.514160,964.197693 
	C991.308716,913.482483 1026.940674,856.839905 1055.436523,795.640320 
	C1093.365723,714.181335 1118.994263,628.632019 1138.587036,541.189148 
	C1151.987427,481.383179 1162.370117,420.989655 1167.968384,359.945190 
	C1172.208008,313.717285 1175.136353,267.346344 1177.536377,220.981476 
	C1178.869995,195.215256 1177.925293,169.331131 1177.996948,142.500275 
z"/>
<path fill="#6EC1AD" opacity="1.000000" stroke="none" 
	d="
M1178.002197,143.000214 
	C1177.925293,169.331131 1178.869995,195.215256 1177.536377,220.981476 
	C1175.136353,267.346344 1172.208008,313.717285 1167.968384,359.945190 
	C1162.370117,420.989655 1151.987427,481.383179 1138.587036,541.189148 
	C1118.994263,628.632019 1093.365723,714.181335 1055.436523,795.640320 
	C1026.940674,856.839905 991.308716,913.482483 946.514160,964.197693 
	C907.810303,1008.017334 863.610413,1045.132568 812.622253,1073.883179 
	C767.107117,1099.547729 718.650452,1116.989014 666.916260,1125.189697 
	C640.828064,1129.325073 614.619751,1130.921509 588.285706,1129.763428 
	C528.956848,1127.154663 472.663605,1112.289673 418.982269,1087.105713 
	C372.258179,1065.185669 330.575195,1035.971313 293.163910,1000.531738 
	C292.211151,999.629150 291.202637,998.785461 289.679779,997.435242 
	C283.645172,1004.006836 277.635345,1010.374878 271.819397,1016.915344 
	C245.634933,1046.361450 221.733475,1077.512329 201.916733,1111.647705 
	C187.539886,1136.412354 176.114700,1162.389893 170.616516,1190.686646 
	C169.860016,1194.579956 169.301239,1198.511597 168.610962,1202.666016 
	C135.691376,1202.666016 102.968399,1202.666016 68.841476,1202.666016 
	C70.512756,1192.009155 71.676727,1181.809082 73.758438,1171.800049 
	C82.193611,1131.243286 100.535347,1094.925537 122.273857,1060.124268 
	C149.188751,1017.036133 180.939087,977.647827 214.619202,939.745361 
	C217.938660,936.009766 221.111450,932.102783 224.755554,928.708252 
	C228.337830,925.371277 228.478378,922.780884 225.579086,918.632812 
	C204.786346,888.883606 187.832153,857.043640 174.738297,823.176880 
	C160.684296,786.826965 151.695343,749.248230 146.816895,710.585083 
	C142.631409,677.413757 141.564545,644.116150 143.385559,610.844299 
	C148.494522,517.499084 172.459442,429.638580 222.727829,350.036346 
	C268.401001,277.710846 330.592560,223.836365 407.775665,187.209015 
	C453.513855,165.503906 501.439728,150.716522 551.623352,143.963425 
	C573.517090,141.017227 595.636292,139.647079 617.684021,137.967285 
	C653.692993,135.223862 689.745056,133.036652 725.745117,130.187576 
	C752.282166,128.087402 778.826904,125.825699 805.256653,122.694557 
	C837.130493,118.918449 868.978821,114.725060 900.669739,109.658249 
	C939.272461,103.486404 977.926086,97.282471 1016.147339,89.160904 
	C1067.250977,78.301964 1117.960327,65.587547 1168.839844,53.672928 
	C1169.627686,53.488426 1170.424438,53.341915 1172.517944,52.908138 
	C1176.705811,82.830544 1177.137329,112.681595 1178.002197,143.000214 
M662.189270,736.500000 
	C662.189270,726.792908 662.189270,717.085876 662.189270,705.971863 
	C704.477661,747.821777 745.628052,788.545471 787.004639,829.493042 
	C802.017273,814.003418 816.582458,798.975464 831.440491,783.645325 
	C791.963257,744.608154 752.762634,705.844421 713.562012,667.080688 
	C713.803101,666.651184 714.044189,666.221741 714.285339,665.792297 
	C716.065002,665.792297 717.844727,665.792480 719.624451,665.792175 
	C764.620056,665.783813 809.615845,665.725891 854.611145,665.840698 
	C859.332764,665.852783 861.116699,664.372803 861.058716,659.510376 
	C860.847778,641.847900 860.824402,624.179382 861.069519,606.517822 
	C861.136353,601.698853 859.294373,600.612793 854.884827,600.654114 
	C835.738831,600.833679 816.590210,600.721069 797.442505,600.725220 
	C771.296509,600.730835 745.150452,600.750549 719.004456,600.745483 
	C717.424683,600.745178 715.844910,600.580383 713.309326,600.438660 
	C753.132080,562.603943 792.186523,525.499207 831.802673,487.860840 
	C816.092712,473.022980 800.903442,458.676880 785.460693,444.091431 
	C745.365601,482.905884 704.190918,522.765503 662.162659,563.451355 
	C662.162659,560.531433 662.162476,559.202881 662.162720,557.874329 
	C662.172546,502.546234 662.128052,447.218018 662.290405,391.890350 
	C662.304077,387.216095 661.260803,385.559265 656.278015,385.640350 
	C638.451172,385.930328 620.613770,385.914703 602.786865,385.618500 
	C597.872864,385.536835 596.699097,387.072510 596.713074,391.818237 
	C596.876648,447.479126 596.832520,503.140656 596.831421,558.802002 
	C596.829285,660.792236 596.818420,762.782532 596.814819,864.772766 
	C596.814575,871.248291 596.829163,871.252930 603.447937,871.251404 
	C620.928467,871.247375 638.412598,871.042725 655.887390,871.355286 
	C660.947571,871.445801 662.338013,870.092773 662.312927,864.987366 
	C662.104248,822.492371 662.192200,779.995972 662.189270,736.500000 
M495.482422,732.982361 
	C527.041382,699.839661 558.600342,666.696899 590.654114,633.034607 
	C542.426331,582.861877 494.594391,533.100952 446.651703,483.224884 
	C445.406891,484.263855 444.718506,484.724152 444.168976,485.313843 
	C432.246552,498.107361 420.540649,511.111969 408.315704,523.608948 
	C404.285187,527.729187 405.174744,529.897705 408.684875,533.535889 
	C438.061829,563.984680 467.260406,594.605652 496.487732,625.198608 
	C499.101959,627.934998 501.539856,630.839844 504.207306,633.832092 
	C502.763336,635.460632 501.597992,636.841980 500.363037,638.157959 
	C469.588776,670.951355 438.863312,703.791016 407.945282,736.448303 
	C404.636414,739.943359 404.619904,742.048035 407.978790,745.335022 
	C416.550995,753.723938 424.779419,762.462830 433.230286,770.977417 
	C437.538879,775.318542 442.030273,779.478210 446.655640,783.928284 
	C462.740631,767.146851 478.868073,750.321167 495.482422,732.982361 
M503.191742,831.187500 
	C499.084106,806.657959 494.976471,782.128479 490.962189,758.156433 
	C485.988739,762.868408 480.506561,767.679077 475.552979,772.983337 
	C474.017975,774.627075 472.947723,777.774109 473.312286,779.957825 
	C477.197632,803.233093 481.279785,826.478516 485.664398,849.664734 
	C486.457336,853.857849 485.663605,855.480835 481.593567,856.764038 
	C458.346252,864.093750 434.709229,869.740295 410.412323,871.689026 
	C386.268097,873.625427 362.158691,873.418396 338.848450,865.146362 
	C305.864899,853.441589 296.362885,829.854675 296.430145,802.701416 
	C296.481934,781.799683 302.667358,761.982788 311.501862,743.078308 
	C323.453308,717.504089 339.545837,694.719849 358.516479,673.916687 
	C363.840729,668.078125 369.388977,662.443909 374.621735,656.939636 
	C387.991302,668.265930 400.651611,678.991394 412.473633,689.006653 
	C418.158356,683.796753 423.149445,679.222534 428.371613,674.436584 
	C415.758087,663.808655 403.341583,653.346802 390.039886,642.139038 
	C406.388031,629.589050 422.011597,617.595276 438.107422,605.239014 
	C433.075836,600.424500 428.163849,595.724487 422.417419,590.225952 
	C406.661072,602.405701 390.805542,614.662170 374.534576,627.239746 
	C364.458344,616.204895 354.388763,605.177307 344.535736,594.386902 
	C339.065155,598.195435 333.668060,601.952820 327.544800,606.215759 
	C338.011261,618.167053 348.491302,630.133911 358.945953,642.071716 
	C358.785126,642.449463 358.729248,642.815857 358.519653,643.035278 
	C357.023895,644.601562 355.502869,646.143982 353.978668,647.682800 
	C333.368896,668.490417 315.064758,691.078003 300.883148,716.812927 
	C283.553070,748.261108 271.700623,781.129639 276.113647,817.858643 
	C278.727539,839.613708 288.002106,857.942871 305.741486,871.401855 
	C325.463654,886.365173 348.494049,891.969604 372.532776,893.708435 
	C405.434235,896.088318 437.636871,891.285767 469.288422,882.394104 
	C476.745148,880.299316 484.166443,878.078186 491.555786,875.929260 
	C492.011353,876.778809 492.315094,877.186707 492.460602,877.644836 
	C493.014679,879.389526 493.560883,881.138855 494.033295,882.906921 
	C502.325897,913.942566 513.640930,943.780212 529.869690,971.582153 
	C541.130554,990.873474 554.427307,1008.510559 573.561951,1020.838806 
	C577.525574,1023.392639 581.917664,1025.281616 585.972534,1027.403809 
	C587.036987,1019.777405 587.988647,1012.959290 589.011536,1005.630981 
	C572.569031,996.231384 561.017334,981.267151 550.969971,964.965759 
	C536.892883,942.126221 527.143005,917.353516 518.941528,891.931274 
	C516.458862,884.235657 514.401428,876.402893 512.140381,868.602478 
	C514.169373,867.698853 515.683777,867.032471 517.191589,866.351624 
	C535.089478,858.269104 553.006592,850.228333 570.849060,842.025330 
	C572.440857,841.293457 574.625977,839.562927 574.698547,838.198608 
	C575.082703,830.975220 574.878906,823.720520 574.878906,815.624207 
	C552.378418,827.677307 530.600891,838.953857 506.861755,847.515686 
	C505.626831,841.968079 504.518250,836.987976 503.191742,831.187500 
M979.388428,767.077820 
	C978.020996,762.279114 976.845337,757.415833 975.255066,752.692139 
	C964.807373,721.658630 947.797913,694.322998 927.430359,668.976196 
	C919.835266,659.524353 911.582153,650.601379 903.620300,641.427124 
	C913.602844,629.723389 923.581787,618.023865 933.459717,606.442749 
	C926.987549,602.243652 921.448059,598.649658 915.905457,595.053650 
	C906.616638,605.535522 897.283020,616.067871 888.094299,626.436707 
	C881.928345,623.060547 879.859131,623.616089 879.505249,628.833923 
	C879.010437,636.131104 878.845520,643.513000 879.414795,650.790222 
	C879.654785,653.857849 881.158081,658.573303 885.531555,657.636292 
	C888.367249,657.028809 889.519409,657.813110 890.907654,659.424561 
	C898.947693,668.757202 907.489990,677.718811 914.854675,687.560120 
	C939.488953,720.478577 959.343445,755.599731 962.560181,797.835388 
	C964.623413,824.924316 955.193237,849.986511 927.377380,862.387451 
	C915.081970,867.869019 902.116882,870.899780 888.784912,871.897644 
	C850.463867,874.765808 813.586609,867.276978 777.300781,855.777344 
	C773.890198,854.696411 773.598328,853.012573 774.252136,849.845581 
	C774.689453,847.727905 774.500916,844.574585 773.202393,843.166931 
	C768.412659,837.974487 763.044067,833.316101 757.521240,828.105957 
	C756.026489,834.497986 754.652466,840.373718 752.940186,847.696167 
	C729.461853,836.741638 706.947815,826.237061 683.953491,815.508362 
	C683.953491,822.072815 684.130737,828.530090 683.878601,834.970520 
	C683.752930,838.180176 685.035706,839.773804 687.811768,841.006226 
	C706.363892,849.241882 724.819946,857.696472 743.432739,865.791077 
	C746.775085,867.244568 747.577637,868.616455 746.568726,872.077393 
	C738.767151,898.838379 729.252747,924.911316 715.991821,949.505432 
	C704.286560,971.214233 691.250427,991.828125 669.636414,1005.337524 
	C668.842041,1005.834045 668.011658,1007.215027 668.120972,1008.065063 
	C668.954773,1014.547546 670.018250,1021.000427 671.205505,1028.734741 
	C678.138000,1024.377441 685.261292,1020.722778 691.441589,1015.867676 
	C713.465759,998.566528 727.701050,975.281494 739.816895,950.603638 
	C750.993469,927.839050 759.937439,904.174500 766.494324,879.654053 
	C767.461731,876.036072 768.905396,875.518555 772.488342,876.486145 
	C789.339844,881.036682 806.137878,885.996460 823.239807,889.363525 
	C856.584900,895.928467 890.062439,897.313965 923.030579,886.907227 
	C953.029480,877.437683 974.268555,858.962158 981.592834,827.224304 
	C986.183472,807.332092 984.196838,787.524963 979.388428,767.077820 
M516.934204,387.476227 
	C525.510010,357.943268 536.628357,329.426117 551.686096,302.572327 
	C562.156311,283.899750 574.021484,266.165833 590.960327,252.578125 
	C606.251160,240.312393 622.709778,234.296738 641.613831,244.759369 
	C641.860168,244.895706 642.248047,244.776382 641.911255,244.776382 
	C646.906799,239.365417 651.600159,234.281784 656.599792,228.866425 
	C644.555542,220.632675 631.166687,216.760773 616.308838,218.508179 
	C597.703430,220.696304 583.006592,230.557648 569.829834,242.969879 
	C552.270569,259.510254 539.475769,279.591278 528.342712,300.763000 
	C514.340149,327.391785 503.495178,355.286774 495.727753,384.364349 
	C494.924713,387.370575 494.463440,390.147064 489.895020,388.617310 
	C466.602936,380.817871 442.729889,375.670837 418.222748,373.590057 
	C390.943451,371.273987 363.905640,372.192566 337.806702,381.304596 
	C311.071411,390.638733 290.552185,407.022217 280.833771,434.678497 
	C275.356445,450.265656 274.940216,466.293457 277.019623,482.503906 
	C279.257568,499.949921 284.311066,516.566162 291.254944,532.171814 
	C298.097351,529.897827 304.603119,527.735779 311.286469,525.514648 
	C310.771576,523.936646 310.360840,522.326416 309.732391,520.806152 
	C303.399719,505.487427 298.893524,489.713867 297.470276,473.124512 
	C295.287109,447.677948 304.386322,420.154755 332.038147,406.694366 
	C350.928070,397.499115 371.073547,394.619904 391.678040,394.202545 
	C411.890533,393.793182 431.916016,396.259796 451.648254,400.482422 
	C463.954315,403.115936 476.041107,406.774048 488.517578,410.048798 
	C488.040802,412.766083 487.734039,414.541718 487.417267,416.315552 
	C483.180634,440.040039 478.929138,463.761902 474.744385,487.495514 
	C474.531067,488.705231 474.389618,490.469604 475.060120,491.207703 
	C480.609039,497.315430 486.357391,503.241943 493.013702,510.241547 
	C497.042023,478.583832 501.582428,448.444489 509.262238,417.340271 
	C531.567383,427.667023 553.043030,437.609802 574.983948,447.767975 
	C574.983948,440.989014 574.840515,434.517700 575.050842,428.057892 
	C575.141541,425.272064 574.122253,423.887238 571.654663,422.777313 
	C555.106934,415.334137 538.679565,407.620850 522.081055,400.294220 
	C513.981873,396.719177 513.853333,397.010345 516.934204,387.476227 
M950.554382,519.999329 
	C949.720276,522.059204 948.886169,524.119080 948.267944,525.645813 
	C955.364746,527.988953 961.765015,530.102173 968.400208,532.292908 
	C968.516846,532.070740 968.846558,531.522156 969.103516,530.941345 
	C979.911804,506.512024 985.658813,481.075653 983.909851,454.250977 
	C982.263733,429.004364 971.729980,408.433289 950.655579,393.955444 
	C925.241211,376.496155 896.236877,372.139954 866.352417,372.656952 
	C834.504395,373.207947 803.590088,379.747192 773.367554,389.661346 
	C772.190186,390.047546 770.857666,389.960938 769.473022,390.107880 
	C758.576416,352.897858 745.724243,316.922302 723.642395,285.197540 
	C718.867981,291.356964 714.628357,296.826508 710.283936,302.431183 
	C710.484375,302.838531 710.736389,303.450653 711.070068,304.014465 
	C727.380310,331.576324 738.709412,361.208832 747.908997,391.770538 
	C749.399841,396.722961 748.215027,398.335236 743.511841,400.305725 
	C724.484314,408.277771 705.718506,416.876648 686.902710,425.347534 
	C685.724854,425.877808 684.144409,427.263977 684.108521,428.299103 
	C683.862549,435.380646 683.979492,442.474762 683.979492,449.515228 
	C685.002197,449.587555 685.379700,449.734589 685.626892,449.614075 
	C691.313477,446.842285 696.969299,444.007080 702.663635,441.251373 
	C746.009705,420.274323 790.650391,403.186615 838.683105,396.490540 
	C864.133301,392.942596 889.459900,393.091095 914.432983,400.066925 
	C946.812195,409.111481 963.341614,431.017273 963.056519,464.534637 
	C962.893982,483.650055 957.761597,501.674042 950.554382,519.999329 
M705.139038,246.390289 
	C704.067017,245.342514 703.043640,244.238892 701.915405,243.255569 
	C690.872009,233.631012 672.706299,233.627731 661.370728,243.226898 
	C649.649719,253.152451 646.801270,270.157928 654.701050,283.045349 
	C664.102356,298.382355 684.850037,302.765442 699.750488,292.562408 
	C714.898010,282.190216 717.513977,261.900024 705.139038,246.390289 
M622.674866,993.028992 
	C620.935059,993.578308 619.144165,994.003723 617.463379,994.696411 
	C603.694580,1000.369995 596.521484,1016.629089 601.487488,1030.805786 
	C606.728394,1045.767090 622.502686,1053.544312 637.895691,1048.756226 
	C652.190674,1044.309692 660.490295,1028.708130 656.623291,1013.552307 
	C652.985840,999.296204 638.144043,990.032837 622.674866,993.028992 
M926.520386,545.998901 
	C914.403625,558.438049 914.267273,575.318665 926.190063,586.896790 
	C937.679138,598.053833 955.539978,597.513000 966.865784,585.665100 
	C976.667786,575.411072 976.747620,557.806946 967.039062,547.456726 
	C956.181519,535.881714 939.699707,535.075928 926.520386,545.998901 
M334.552338,547.988464 
	C333.348694,546.840698 332.205780,545.620178 330.931915,544.556580 
	C319.943085,535.381409 303.772888,536.231445 293.253693,546.507507 
	C283.465057,556.069824 282.091827,573.088440 290.266479,583.528381 
	C300.068329,596.046448 318.445374,598.623779 330.343475,589.149048 
	C343.524261,578.652893 345.479156,561.756592 334.552338,547.988464 
z"/>
<path fill="#FDFEFE" opacity="1.000000" stroke="none" 
	d="
M662.189941,737.000000 
	C662.192200,779.995972 662.104248,822.492371 662.312927,864.987366 
	C662.338013,870.092773 660.947571,871.445801 655.887390,871.355286 
	C638.412598,871.042725 620.928467,871.247375 603.447937,871.251404 
	C596.829163,871.252930 596.814575,871.248291 596.814819,864.772766 
	C596.818420,762.782532 596.829285,660.792236 596.831421,558.802002 
	C596.832520,503.140656 596.876648,447.479126 596.713074,391.818237 
	C596.699097,387.072510 597.872864,385.536835 602.786865,385.618500 
	C620.613770,385.914703 638.451172,385.930328 656.278015,385.640350 
	C661.260803,385.559265 662.304077,387.216095 662.290405,391.890350 
	C662.128052,447.218018 662.172546,502.546234 662.162720,557.874329 
	C662.162476,559.202881 662.162659,560.531433 662.162659,563.451355 
	C704.190918,522.765503 745.365601,482.905884 785.460693,444.091431 
	C800.903442,458.676880 816.092712,473.022980 831.802673,487.860840 
	C792.186523,525.499207 753.132080,562.603943 713.309326,600.438660 
	C715.844910,600.580383 717.424683,600.745178 719.004456,600.745483 
	C745.150452,600.750549 771.296509,600.730835 797.442505,600.725220 
	C816.590210,600.721069 835.738831,600.833679 854.884827,600.654114 
	C859.294373,600.612793 861.136353,601.698853 861.069519,606.517822 
	C860.824402,624.179382 860.847778,641.847900 861.058716,659.510376 
	C861.116699,664.372803 859.332764,665.852783 854.611145,665.840698 
	C809.615845,665.725891 764.620056,665.783813 719.624451,665.792175 
	C717.844727,665.792480 716.065002,665.792297 714.285339,665.792297 
	C714.044189,666.221741 713.803101,666.651184 713.562012,667.080688 
	C752.762634,705.844421 791.963257,744.608154 831.440491,783.645325 
	C816.582458,798.975464 802.017273,814.003418 787.004639,829.493042 
	C745.628052,788.545471 704.477661,747.821777 662.189270,705.971863 
	C662.189270,717.085876 662.189270,726.792908 662.189941,737.000000 
z"/>
<path fill="#FDFEFE" opacity="1.000000" stroke="none" 
	d="
M495.238983,733.238892 
	C478.868073,750.321167 462.740631,767.146851 446.655640,783.928284 
	C442.030273,779.478210 437.538879,775.318542 433.230286,770.977417 
	C424.779419,762.462830 416.550995,753.723938 407.978790,745.335022 
	C404.619904,742.048035 404.636414,739.943359 407.945282,736.448303 
	C438.863312,703.791016 469.588776,670.951355 500.363037,638.157959 
	C501.597992,636.841980 502.763336,635.460632 504.207306,633.832092 
	C501.539856,630.839844 499.101959,627.934998 496.487732,625.198608 
	C467.260406,594.605652 438.061829,563.984680 408.684875,533.535889 
	C405.174744,529.897705 404.285187,527.729187 408.315704,523.608948 
	C420.540649,511.111969 432.246552,498.107361 444.168976,485.313843 
	C444.718506,484.724152 445.406891,484.263855 446.651703,483.224884 
	C494.594391,533.100952 542.426331,582.861877 590.654114,633.034607 
	C558.600342,666.696899 527.041382,699.839661 495.238983,733.238892 
z"/>
<path fill="#FBFDFC" opacity="1.000000" stroke="none" 
	d="
M503.300720,831.597656 
	C504.518250,836.987976 505.626831,841.968079 506.861755,847.515686 
	C530.600891,838.953857 552.378418,827.677307 574.878906,815.624207 
	C574.878906,823.720520 575.082703,830.975220 574.698547,838.198608 
	C574.625977,839.562927 572.440857,841.293457 570.849060,842.025330 
	C553.006592,850.228333 535.089478,858.269104 517.191589,866.351624 
	C515.683777,867.032471 514.169373,867.698853 512.140381,868.602478 
	C514.401428,876.402893 516.458862,884.235657 518.941528,891.931274 
	C527.143005,917.353516 536.892883,942.126221 550.969971,964.965759 
	C561.017334,981.267151 572.569031,996.231384 589.011536,1005.630981 
	C587.988647,1012.959290 587.036987,1019.777405 585.972534,1027.403809 
	C581.917664,1025.281616 577.525574,1023.392639 573.561951,1020.838806 
	C554.427307,1008.510559 541.130554,990.873474 529.869690,971.582153 
	C513.640930,943.780212 502.325897,913.942566 494.033295,882.906921 
	C493.560883,881.138855 493.014679,879.389526 492.460602,877.644836 
	C492.315094,877.186707 492.011353,876.778809 491.555786,875.929260 
	C484.166443,878.078186 476.745148,880.299316 469.288422,882.394104 
	C437.636871,891.285767 405.434235,896.088318 372.532776,893.708435 
	C348.494049,891.969604 325.463654,886.365173 305.741486,871.401855 
	C288.002106,857.942871 278.727539,839.613708 276.113647,817.858643 
	C271.700623,781.129639 283.553070,748.261108 300.883148,716.812927 
	C315.064758,691.078003 333.368896,668.490417 353.978668,647.682800 
	C355.502869,646.143982 357.023895,644.601562 358.519653,643.035278 
	C358.729248,642.815857 358.785126,642.449463 358.945953,642.071716 
	C348.491302,630.133911 338.011261,618.167053 327.544800,606.215759 
	C333.668060,601.952820 339.065155,598.195435 344.535736,594.386902 
	C354.388763,605.177307 364.458344,616.204895 374.534576,627.239746 
	C390.805542,614.662170 406.661072,602.405701 422.417419,590.225952 
	C428.163849,595.724487 433.075836,600.424500 438.107422,605.239014 
	C422.011597,617.595276 406.388031,629.589050 390.039886,642.139038 
	C403.341583,653.346802 415.758087,663.808655 428.371613,674.436584 
	C423.149445,679.222534 418.158356,683.796753 412.473633,689.006653 
	C400.651611,678.991394 387.991302,668.265930 374.621735,656.939636 
	C369.388977,662.443909 363.840729,668.078125 358.516479,673.916687 
	C339.545837,694.719849 323.453308,717.504089 311.501862,743.078308 
	C302.667358,761.982788 296.481934,781.799683 296.430145,802.701416 
	C296.362885,829.854675 305.864899,853.441589 338.848450,865.146362 
	C362.158691,873.418396 386.268097,873.625427 410.412323,871.689026 
	C434.709229,869.740295 458.346252,864.093750 481.593567,856.764038 
	C485.663605,855.480835 486.457336,853.857849 485.664398,849.664734 
	C481.279785,826.478516 477.197632,803.233093 473.312286,779.957825 
	C472.947723,777.774109 474.017975,774.627075 475.552979,772.983337 
	C480.506561,767.679077 485.988739,762.868408 490.962189,758.156433 
	C494.976471,782.128479 499.084106,806.657959 503.300720,831.597656 
z"/>
<path fill="#FBFDFC" opacity="1.000000" stroke="none" 
	d="
M979.517517,767.471558 
	C984.196838,787.524963 986.183472,807.332092 981.592834,827.224304 
	C974.268555,858.962158 953.029480,877.437683 923.030579,886.907227 
	C890.062439,897.313965 856.584900,895.928467 823.239807,889.363525 
	C806.137878,885.996460 789.339844,881.036682 772.488342,876.486145 
	C768.905396,875.518555 767.461731,876.036072 766.494324,879.654053 
	C759.937439,904.174500 750.993469,927.839050 739.816895,950.603638 
	C727.701050,975.281494 713.465759,998.566528 691.441589,1015.867676 
	C685.261292,1020.722778 678.138000,1024.377441 671.205505,1028.734741 
	C670.018250,1021.000427 668.954773,1014.547546 668.120972,1008.065063 
	C668.011658,1007.215027 668.842041,1005.834045 669.636414,1005.337524 
	C691.250427,991.828125 704.286560,971.214233 715.991821,949.505432 
	C729.252747,924.911316 738.767151,898.838379 746.568726,872.077393 
	C747.577637,868.616455 746.775085,867.244568 743.432739,865.791077 
	C724.819946,857.696472 706.363892,849.241882 687.811768,841.006226 
	C685.035706,839.773804 683.752930,838.180176 683.878601,834.970520 
	C684.130737,828.530090 683.953491,822.072815 683.953491,815.508362 
	C706.947815,826.237061 729.461853,836.741638 752.940186,847.696167 
	C754.652466,840.373718 756.026489,834.497986 757.521240,828.105957 
	C763.044067,833.316101 768.412659,837.974487 773.202393,843.166931 
	C774.500916,844.574585 774.689453,847.727905 774.252136,849.845581 
	C773.598328,853.012573 773.890198,854.696411 777.300781,855.777344 
	C813.586609,867.276978 850.463867,874.765808 888.784912,871.897644 
	C902.116882,870.899780 915.081970,867.869019 927.377380,862.387451 
	C955.193237,849.986511 964.623413,824.924316 962.560181,797.835388 
	C959.343445,755.599731 939.488953,720.478577 914.854675,687.560120 
	C907.489990,677.718811 898.947693,668.757202 890.907654,659.424561 
	C889.519409,657.813110 888.367249,657.028809 885.531555,657.636292 
	C881.158081,658.573303 879.654785,653.857849 879.414795,650.790222 
	C878.845520,643.513000 879.010437,636.131104 879.505249,628.833923 
	C879.859131,623.616089 881.928345,623.060547 888.094299,626.436707 
	C897.283020,616.067871 906.616638,605.535522 915.905457,595.053650 
	C921.448059,598.649658 926.987549,602.243652 933.459717,606.442749 
	C923.581787,618.023865 913.602844,629.723389 903.620300,641.427124 
	C911.582153,650.601379 919.835266,659.524353 927.430359,668.976196 
	C947.797913,694.322998 964.807373,721.658630 975.255066,752.692139 
	C976.845337,757.415833 978.020996,762.279114 979.517517,767.471558 
z"/>
<path fill="#FBFDFC" opacity="1.000000" stroke="none" 
	d="
M516.820190,387.866882 
	C513.853333,397.010345 513.981873,396.719177 522.081055,400.294220 
	C538.679565,407.620850 555.106934,415.334137 571.654663,422.777313 
	C574.122253,423.887238 575.141541,425.272064 575.050842,428.057892 
	C574.840515,434.517700 574.983948,440.989014 574.983948,447.767975 
	C553.043030,437.609802 531.567383,427.667023 509.262238,417.340271 
	C501.582428,448.444489 497.042023,478.583832 493.013702,510.241547 
	C486.357391,503.241943 480.609039,497.315430 475.060120,491.207703 
	C474.389618,490.469604 474.531067,488.705231 474.744385,487.495514 
	C478.929138,463.761902 483.180634,440.040039 487.417267,416.315552 
	C487.734039,414.541718 488.040802,412.766083 488.517578,410.048798 
	C476.041107,406.774048 463.954315,403.115936 451.648254,400.482422 
	C431.916016,396.259796 411.890533,393.793182 391.678040,394.202545 
	C371.073547,394.619904 350.928070,397.499115 332.038147,406.694366 
	C304.386322,420.154755 295.287109,447.677948 297.470276,473.124512 
	C298.893524,489.713867 303.399719,505.487427 309.732391,520.806152 
	C310.360840,522.326416 310.771576,523.936646 311.286469,525.514648 
	C304.603119,527.735779 298.097351,529.897827 291.254944,532.171814 
	C284.311066,516.566162 279.257568,499.949921 277.019623,482.503906 
	C274.940216,466.293457 275.356445,450.265656 280.833771,434.678497 
	C290.552185,407.022217 311.071411,390.638733 337.806702,381.304596 
	C363.905640,372.192566 390.943451,371.273987 418.222748,373.590057 
	C442.729889,375.670837 466.602936,380.817871 489.895020,388.617310 
	C494.463440,390.147064 494.924713,387.370575 495.727753,384.364349 
	C503.495178,355.286774 514.340149,327.391785 528.342712,300.763000 
	C539.475769,279.591278 552.270569,259.510254 569.829834,242.969879 
	C583.006592,230.557648 597.703430,220.696304 616.308838,218.508179 
	C631.166687,216.760773 644.555542,220.632675 656.599792,228.866425 
	C651.600159,234.281784 646.906799,239.365417 641.911255,244.776382 
	C642.248047,244.776382 641.860168,244.895706 641.613831,244.759369 
	C622.709778,234.296738 606.251160,240.312393 590.960327,252.578125 
	C574.021484,266.165833 562.156311,283.899750 551.686096,302.572327 
	C536.628357,329.426117 525.510010,357.943268 516.820190,387.866882 
z"/>
<path fill="#FBFDFC" opacity="1.000000" stroke="none" 
	d="
M950.714966,519.650269 
	C957.761597,501.674042 962.893982,483.650055 963.056519,464.534637 
	C963.341614,431.017273 946.812195,409.111481 914.432983,400.066925 
	C889.459900,393.091095 864.133301,392.942596 838.683105,396.490540 
	C790.650391,403.186615 746.009705,420.274323 702.663635,441.251373 
	C696.969299,444.007080 691.313477,446.842285 685.626892,449.614075 
	C685.379700,449.734589 685.002197,449.587555 683.979492,449.515228 
	C683.979492,442.474762 683.862549,435.380646 684.108521,428.299103 
	C684.144409,427.263977 685.724854,425.877808 686.902710,425.347534 
	C705.718506,416.876648 724.484314,408.277771 743.511841,400.305725 
	C748.215027,398.335236 749.399841,396.722961 747.908997,391.770538 
	C738.709412,361.208832 727.380310,331.576324 711.070068,304.014465 
	C710.736389,303.450653 710.484375,302.838531 710.283936,302.431183 
	C714.628357,296.826508 718.867981,291.356964 723.642395,285.197540 
	C745.724243,316.922302 758.576416,352.897858 769.473022,390.107880 
	C770.857666,389.960938 772.190186,390.047546 773.367554,389.661346 
	C803.590088,379.747192 834.504395,373.207947 866.352417,372.656952 
	C896.236877,372.139954 925.241211,376.496155 950.655579,393.955444 
	C971.729980,408.433289 982.263733,429.004364 983.909851,454.250977 
	C985.658813,481.075653 979.911804,506.512024 969.103516,530.941345 
	C968.846558,531.522156 968.516846,532.070740 968.400208,532.292908 
	C961.765015,530.102173 955.364746,527.988953 948.267944,525.645813 
	C948.886169,524.119080 949.720276,522.059204 950.714966,519.650269 
z"/>
<path fill="#FCFDFD" opacity="1.000000" stroke="none" 
	d="
M705.387695,246.649811 
	C717.513977,261.900024 714.898010,282.190216 699.750488,292.562408 
	C684.850037,302.765442 664.102356,298.382355 654.701050,283.045349 
	C646.801270,270.157928 649.649719,253.152451 661.370728,243.226898 
	C672.706299,233.627731 690.872009,233.631012 701.915405,243.255569 
	C703.043640,244.238892 704.067017,245.342514 705.387695,246.649811 
z"/>
<path fill="#FCFDFD" opacity="1.000000" stroke="none" 
	d="
M623.084839,992.952148 
	C638.144043,990.032837 652.985840,999.296204 656.623291,1013.552307 
	C660.490295,1028.708130 652.190674,1044.309692 637.895691,1048.756226 
	C622.502686,1053.544312 606.728394,1045.767090 601.487488,1030.805786 
	C596.521484,1016.629089 603.694580,1000.369995 617.463379,994.696411 
	C619.144165,994.003723 620.935059,993.578308 623.084839,992.952148 
z"/>
<path fill="#FCFDFD" opacity="1.000000" stroke="none" 
	d="
M926.781067,545.750122 
	C939.699707,535.075928 956.181519,535.881714 967.039062,547.456726 
	C976.747620,557.806946 976.667786,575.411072 966.865784,585.665100 
	C955.539978,597.513000 937.679138,598.053833 926.190063,586.896790 
	C914.267273,575.318665 914.403625,558.438049 926.781067,545.750122 
z"/>
<path fill="#FCFDFD" opacity="1.000000" stroke="none" 
	d="
M334.799011,548.247986 
	C345.479156,561.756592 343.524261,578.652893 330.343475,589.149048 
	C318.445374,598.623779 300.068329,596.046448 290.266479,583.528381 
	C282.091827,573.088440 283.465057,556.069824 293.253693,546.507507 
	C303.772888,536.231445 319.943085,535.381409 330.931915,544.556580 
	C332.205780,545.620178 333.348694,546.840698 334.799011,548.247986 
z"/>
</svg>